<?xml version="1.0" encoding="UTF-8" standalone="no"?>
<!-- Created with Inkscape (http://www.inkscape.org/) -->

<svg
   xmlns:dc="http://purl.org/dc/elements/1.1/"
   xmlns:cc="http://creativecommons.org/ns#"
   xmlns:rdf="http://www.w3.org/1999/02/22-rdf-syntax-ns#"
   xmlns:svg="http://www.w3.org/2000/svg"
   xmlns="http://www.w3.org/2000/svg"
   xmlns:sodipodi="http://sodipodi.sourceforge.net/DTD/sodipodi-0.dtd"
   xmlns:inkscape="http://www.inkscape.org/namespaces/inkscape"
   width="210mm"
   height="297mm"
   viewBox="0 0 210 297"
   version="1.1"
   id="svg8"
   inkscape:version="0.92.2 2405546, 2018-03-11"
   sodipodi:docname="logo1.svg">
  <defs
     id="defs2" />
  <sodipodi:namedview
     id="base"
     pagecolor="#ffffff"
     bordercolor="#666666"
     borderopacity="1.0"
     inkscape:pageopacity="0.0"
     inkscape:pageshadow="2"
     inkscape:zoom="1.2553763"
     inkscape:cx="400.37772"
     inkscape:cy="721.78491"
     inkscape:document-units="mm"
     inkscape:current-layer="layer1"
     showgrid="false"
     inkscape:window-width="1920"
     inkscape:window-height="1023"
     inkscape:window-x="0"
     inkscape:window-y="0"
     inkscape:window-maximized="1" />
  <metadata
     id="metadata5">
    <rdf:RDF>
      <cc:Work
         rdf:about="">
        <dc:format>image/svg+xml</dc:format>
        <dc:type
           rdf:resource="http://purl.org/dc/dcmitype/StillImage" />
        <dc:title />
      </cc:Work>
    </rdf:RDF>
  </metadata>
  <g
     inkscape:label="Layer 1"
     inkscape:groupmode="layer"
     id="layer1">
    <ellipse
       style="opacity:0.36100003;fill:#917c6f;fill-opacity:1;stroke:#efff32;stroke-width:0.17977631;stroke-miterlimit:4;stroke-dasharray:none;stroke-opacity:1;paint-order:fill markers stroke"
       id="path854"
       cx="-127.12283"
       cy="114.87659"
       rx="46.650612"
       ry="46.483112"
       transform="rotate(-98.833027)" />
    <ellipse
       ry="46.483112"
       rx="46.650612"
       cy="-142.19922"
       cx="95.583611"
       id="ellipse892"
       style="opacity:0.36100003;fill:#917c6f;fill-opacity:1;stroke:#efff32;stroke-width:0.17977631;stroke-miterlimit:4;stroke-dasharray:none;stroke-opacity:1;paint-order:fill markers stroke"
       transform="rotate(95.155676)" />
    <path
       style="fill:#917c6f;fill-opacity:1;stroke:#efff32;stroke-width:0.61984253;stroke-miterlimit:4;stroke-dasharray:none;stroke-opacity:1;paint-order:fill markers stroke"
       d="m 529.46094,154.38672 c -49.77765,0.24545 -94.11195,21.26098 -117.29297,60.82422 L 290.23242,423.31836 c -39.04171,66.63284 -2.85558,159.89552 81.13477,209.10742 83.99034,49.21187 183.04034,35.18557 222.08203,-31.44726 L 715.38281,392.87305 C 754.4245,326.24023 718.23642,232.9775 634.24609,183.76562 600.12501,163.77331 563.51933,154.21878 529.46094,154.38672 Z"
       transform="scale(0.26458333)"
       id="path1025" />
    <path
       style="fill:#917c6f;fill-opacity:1;stroke:#efff32;stroke-width:0.61984253;stroke-miterlimit:4;stroke-dasharray:none;stroke-opacity:1;paint-order:fill markers stroke"
       d="m 500.92383,205.37305 c 0.37754,0.0134 0.75029,0.14853 1.11914,0.40625 0.28239,0.18793 1.06635,1.28462 2.35156,3.28711 1.30821,1.98106 1.95907,3.0826 1.95117,3.30468 -0.005,0.13325 0.18096,0.51631 0.5586,1.15235 0.37843,0.61383 1.0262,1.78329 1.94336,3.50586 0.94015,1.70114 1.9055,3.62576 2.89648,5.77343 2.14779,4.6348 3.57645,6.96497 4.28711,6.99024 0.0888,0.003 0.16812,-0.0166 0.23633,-0.0586 0.0682,-0.042 0.16306,-0.21648 0.28515,-0.52344 0.1221,-0.30697 0.23714,-0.73703 0.34571,-1.28906 0.10936,-0.57426 0.23027,-1.42719 0.35937,-2.55665 0.1521,-1.15087 0.3008,-2.5343 0.44727,-4.15234 0.62478,-6.31512 1.08934,-10.01307 1.39453,-11.0918 0.25682,-0.96926 0.65367,-1.5107 1.19141,-1.625 0.13403,-0.0175 0.30208,-0.0227 0.50195,-0.0156 0.37754,0.0134 0.63801,0.16866 0.7832,0.46289 0.1674,0.29502 0.23816,0.79715 0.21289,1.50781 -0.0174,0.48858 -0.0991,1.26413 -0.24804,2.32617 -0.14895,1.06205 -0.3869,2.71097 -0.71094,4.94532 -0.30183,2.23513 -0.59683,4.61404 -0.88672,7.13867 -0.36431,3.36696 -0.72112,5.55588 -1.06836,6.5664 -0.32424,0.98911 -0.89705,1.46867 -1.71875,1.43946 -1.44353,-0.0513 -2.72217,-0.67521 -3.83594,-1.8711 -1.11376,-1.19588 -2.23612,-3.0591 -3.36914,-5.58984 -0.55698,-1.22056 -1.05386,-2.2606 -1.49023,-3.12109 -0.43558,-0.8827 -0.72628,-1.44941 -0.87305,-1.69922 -0.14598,-0.27203 -0.27069,-0.53106 -0.37305,-0.7793 -0.10156,-0.27045 -0.20083,-0.61902 -0.29687,-1.04492 -0.13098,-0.69398 -0.86895,-2.15392 -2.21289,-4.38086 -1.34316,-2.24914 -2.02313,-3.40915 -2.04297,-3.47656 -0.0206,-0.0452 -0.0532,-0.0687 -0.0977,-0.0703 -0.22208,-0.008 -0.47619,1.16281 -0.75976,3.50977 -0.28278,2.32475 -0.46285,4.58655 -0.54102,6.78516 -0.0403,1.13261 -0.0315,2.12168 0.0274,2.96875 0.0588,0.84707 0.086,1.38143 0.0781,1.60351 -0.0403,1.13262 -0.23596,2.21532 -0.58398,3.24805 -0.32503,1.01131 -0.6642,1.51068 -1.01954,1.49805 -0.53219,-0.0412 -0.90728,-0.15429 -1.12304,-0.33985 -0.19356,-0.18477 -0.3322,-0.635 -0.41797,-1.34961 -0.085,-0.73682 -0.0994,-1.9269 -0.041,-3.57031 0.10107,-2.84265 0.31425,-6.63579 0.63868,-11.38281 0.32521,-4.76924 0.55998,-7.3181 0.70507,-7.64649 0.26403,-0.54652 0.73024,-0.80884 1.39649,-0.78515 z"
       transform="scale(0.26458333)"
       id="path1023" />
    <path
       style="fill:#917c6f;fill-opacity:1;stroke:#efff32;stroke-width:0.61984253;stroke-miterlimit:4;stroke-dasharray:none;stroke-opacity:1;paint-order:fill markers stroke"
       d="m 487.15234,206.39258 c 0.49034,-0.01 0.84474,0.0138 1.0625,0.0703 0.16139,0.051 0.31997,0.18072 0.47461,0.38867 0.15465,0.20796 0.24196,0.41231 0.26172,0.61133 0.0395,0.39804 -0.11844,0.71482 -0.47461,0.95117 -0.35836,0.21425 -1.07415,0.44135 -2.14453,0.68164 l -0.98047,0.23242 0.63867,5.76368 c 1.04425,8.94056 1.79929,13.38791 2.26368,13.34179 0.0221,-0.002 0.0835,-0.0418 0.1875,-0.11914 0.10178,-0.0994 0.23812,-0.20257 0.40625,-0.30859 0.19023,-0.10822 0.39605,-0.17335 0.61718,-0.19531 0.35382,-0.0351 0.66082,0.0361 0.92383,0.21093 0.28293,0.15056 0.43996,0.37987 0.47071,0.68946 0.0483,0.48649 -0.26926,0.98721 -0.95508,1.50195 -0.68802,0.49263 -2.01118,1.22711 -3.96875,2.20313 -1.2763,0.64038 -2.2024,0.98977 -2.77735,1.04687 -0.35381,0.0351 -0.83849,-0.007 -1.45312,-0.125 -0.65886,-0.11322 -1.1198,-0.25678 -1.38281,-0.43164 -0.26302,-0.17486 -0.40871,-0.41697 -0.43946,-0.72656 -0.0329,-0.3317 0.0333,-0.56132 0.19922,-0.68946 0.16593,-0.12813 0.50311,-0.21706 1.01172,-0.26757 0.77397,-0.0769 1.73334,-0.42944 2.87695,-1.05664 l 1.58203,-0.92774 -0.91406,-6.17383 c -0.6097,-4.11544 -1.03405,-7.37674 -1.27344,-9.78711 l -0.35351,-3.55078 -0.93555,0.36133 c -1.05281,0.4172 -2.08825,0.67632 -3.10547,0.77734 -1.28258,0.12738 -1.94777,-0.0526 -1.99609,-0.53906 -0.0285,-0.28747 0.32733,-0.6344 1.06836,-1.04297 0.73883,-0.43068 1.68696,-0.89415 2.84375,-1.38867 1.1789,-0.49672 1.92757,-0.82852 2.24609,-0.99414 0.23227,-0.13472 0.9465,-0.26031 2.14063,-0.37891 0.76291,-0.0758 1.38856,-0.11928 1.8789,-0.1289 z"
       transform="scale(0.26458333)"
       id="path1021" />
    <path
       style="fill:#917c6f;fill-opacity:1;stroke:#efff32;stroke-width:0.61984253;stroke-miterlimit:4;stroke-dasharray:none;stroke-opacity:1;paint-order:fill markers stroke"
       d="m 530.72656,211.2207 c 0.67772,0.009 1.56268,0.0353 2.65235,0.0801 4.42407,0.19215 8.67314,0.29458 12.74804,0.30469 2.51035,0.0189 4.1262,0.0985 4.84571,0.24023 0.67589,0.13317 1.3347,0.41113 1.97656,0.83203 0.64185,0.42091 0.9281,0.80545 0.85937,1.1543 -0.0644,0.32705 -0.40344,0.55349 -1.01757,0.68164 -0.60984,0.10635 -1.38474,0.0675 -2.32227,-0.11719 -1.46081,-0.2878 -3.05861,-0.39801 -4.79297,-0.33203 l -2.63281,0.0918 -0.0508,2.84375 c -0.0952,1.74789 -0.45388,5.06435 -1.07617,9.94727 -0.5962,4.8654 -0.91857,7.5882 -0.96485,8.16796 -0.0463,0.57977 -0.0965,1.01149 -0.15234,1.29493 -0.13317,0.67589 -0.4953,0.95582 -1.08399,0.83984 -0.56688,-0.11169 -0.85125,-0.90391 -0.85546,-2.37695 0.0176,-1.46875 0.31428,-4.29845 0.89062,-8.48828 0.95573,-7.15012 1.15712,-11.16421 0.60547,-12.04297 -0.14006,-0.20879 -0.40637,-0.35237 -0.79883,-0.42969 -0.17442,-0.0344 -0.94737,-0.0732 -2.32031,-0.11719 -1.35114,-0.0397 -2.39737,-0.13324 -3.13867,-0.2793 -0.71951,-0.14174 -1.48932,-0.20337 -2.3086,-0.18359 -0.81927,0.0198 -1.34805,0.006 -1.58789,-0.041 -0.54508,-0.1074 -0.99581,-0.29677 -1.34961,-0.57032 -0.33199,-0.26925 -0.46639,-0.55803 -0.40625,-0.86328 0.073,-0.37065 0.36175,-0.57306 0.86719,-0.60937 0.26577,-0.0269 0.73634,-0.0363 1.41406,-0.0274 z"
       transform="scale(0.26458333)"
       id="path1019" />
    <path
       style="fill:#917c6f;fill-opacity:1;stroke:#efff32;stroke-width:0.61984253;stroke-miterlimit:4;stroke-dasharray:none;stroke-opacity:1;paint-order:fill markers stroke"
       d="m 565.58203,216.36914 c 0.49369,-0.002 1.04764,0.0247 1.66211,0.082 1.23613,0.0937 2.49462,0.36048 3.77734,0.79883 1.91357,0.65394 2.767,1.28667 2.5586,1.89648 -0.10061,0.2944 -1.22241,0.2738 -3.36328,-0.0586 -1.73362,-0.28715 -3.41628,-0.41462 -5.04688,-0.38477 -1.62341,0.009 -2.76949,0.16929 -3.43945,0.48047 -0.42322,0.20764 -0.73434,0.60457 -0.93555,1.19336 -0.0431,0.12617 -0.12019,0.38189 -0.22851,0.76758 -0.0801,0.37185 -0.21339,0.97297 -0.40235,1.80078 -0.18896,0.82782 -0.38509,1.64181 -0.58789,2.44141 -0.47028,1.78846 -0.59068,2.72173 -0.35937,2.80078 0.0631,0.0216 0.14823,0.0148 0.2539,-0.0195 0.42934,-0.0881 1.74616,-0.0259 3.95118,0.1875 2.22603,0.22059 3.60124,0.42191 4.12695,0.60156 0.63085,0.21559 0.85739,0.58562 0.67773,1.11133 -0.12935,0.37851 -0.6024,0.59251 -1.41797,0.64258 -0.81556,0.0501 -2.38898,-0.0188 -4.7207,-0.20508 -1.70647,-0.16045 -2.78143,-0.21029 -3.22461,-0.15039 -0.42215,0.0671 -0.70135,0.30163 -0.83789,0.70117 -0.007,0.021 -0.43418,1.34102 -1.2832,3.96289 l -0.83399,2.74609 1.60938,0.54883 c 0.94627,0.32338 2.20876,0.54478 3.78906,0.66211 1.60851,0.1035 2.98781,0.0565 4.13477,-0.13867 0.77404,-0.13471 1.2765,-0.16108 1.50781,-0.082 0.21028,0.0719 0.37595,0.26955 0.5,0.59375 0.13123,0.30317 0.15912,0.56947 0.0801,0.80078 -0.25152,0.73599 -1.67822,1.16423 -4.2793,1.28516 -2.57287,0.10708 -4.9537,-0.21163 -7.14062,-0.95899 -1.32478,-0.45272 -2.05458,-0.92696 -2.19141,-1.41992 -0.13789,-0.35241 -0.0337,-1.24285 0.31445,-2.67383 0.3553,-1.45201 0.92278,-3.59452 1.70313,-6.42773 0.80856,-2.84706 1.45711,-5.29266 1.94336,-7.33399 0.37739,-1.58536 0.69895,-2.76687 0.96484,-3.54492 0.21558,-0.63085 0.47907,-1.12716 0.79102,-1.49023 0.34016,-0.37692 0.61482,-0.59929 0.82617,-0.66797 0.21853,-0.0897 0.39141,-0.11343 0.51758,-0.0703 0.23131,0.079 0.65626,0.0722 1.27539,-0.0215 0.62631,-0.11474 1.30254,-0.23718 2.02734,-0.36523 0.37291,-0.0604 0.80709,-0.0902 1.30078,-0.0918 z"
       transform="scale(0.26458333)"
       id="path1017" />
    <path
       style="fill:#917c6f;fill-opacity:1;stroke:#efff32;stroke-width:0.61984253;stroke-miterlimit:4;stroke-dasharray:none;stroke-opacity:1;paint-order:fill markers stroke"
       d="m 583.44336,224.16797 c 0.13203,-0.0155 0.22888,-0.009 0.28906,0.0195 0.76233,0.36325 2.35074,1.31678 4.76563,2.86133 2.41488,1.54454 3.83471,2.51655 4.25976,2.91601 1.16248,1.02163 1.3992,2.25482 0.71094,3.69922 -0.32501,0.68208 -0.8285,1.30359 -1.51367,1.86328 -0.65555,0.5492 -1.29905,0.96948 -1.92969,1.25977 -0.62108,0.27022 -1.19825,0.52495 -1.73047,0.76367 -0.51216,0.24828 -0.79205,0.42118 -0.83984,0.52149 -0.0669,0.14042 -0.86383,0.31554 -2.39063,0.52343 -1.49717,0.1974 -2.79784,0.31663 -3.90039,0.35742 -0.91338,0.0571 -1.39361,0.13603 -1.4414,0.23633 -0.0191,0.0401 0.28044,0.36599 0.89843,0.98047 0.64762,0.60398 1.40313,1.37091 2.26563,2.29883 0.8625,0.92792 1.48832,1.72977 1.8789,2.4082 0.61693,1.08168 1.02596,1.67199 1.22657,1.76758 0.27129,0.15389 0.56074,0.70962 0.86719,1.66797 0.33605,0.94785 0.43656,1.56094 0.30273,1.8418 -0.23898,0.50153 -0.53929,0.6662 -0.90039,0.49414 -0.32098,-0.15295 -0.74532,-0.57582 -1.27539,-1.27149 -0.50046,-0.70617 -1.19988,-1.66731 -2.09766,-2.88281 -0.88822,-1.23556 -1.80436,-2.36112 -2.74805,-3.37695 l -1.90234,-2.05078 -1.55664,3.57812 c -0.22848,0.53115 -0.57848,1.28654 -1.04687,2.26953 -0.22942,0.48147 -0.44083,0.80031 -0.63672,0.95313 -0.20546,0.17287 -0.47928,0.17813 -0.82032,0.0156 -0.76232,-0.36324 -0.56074,-1.76933 0.60547,-4.21679 1.22357,-2.56783 1.51589,-4.23864 0.875,-5.01172 -0.47756,-0.54757 -0.60658,-1.05227 -0.38672,-1.51368 0.20075,-0.42127 0.65745,-0.63307 1.37305,-0.63671 l 1.20899,0.0215 1.39453,-3.54492 c 0.74951,-1.88292 1.21992,-3.20946 1.41406,-3.97852 0.22376,-0.77955 0.22653,-1.22102 0.006,-1.32617 -0.0602,-0.0287 -0.21347,-0.0173 -0.46094,0.0371 -0.24746,0.0544 -0.50288,0.0207 -0.76367,-0.10351 -0.24073,-0.11471 -0.4135,-0.29645 -0.51758,-0.54297 -0.10408,-0.24653 -0.093,-0.49897 0.0312,-0.75977 0.16251,-0.34104 0.93786,-0.80938 2.32813,-1.40234 1.0427,-0.44472 1.76211,-0.68968 2.1582,-0.73633 z"
       transform="scale(0.26458333)"
       id="path1015" />
    <path
       style="fill:#917c6f;fill-opacity:1;stroke:#efff32;stroke-width:0.61984253;stroke-miterlimit:4;stroke-dasharray:none;stroke-opacity:1;paint-order:fill markers stroke"
       d="m 583.95117,227.06055 -0.56445,1.72656 c -0.131,0.4299 -0.44629,1.32422 -0.94727,2.68555 -0.49141,1.34127 -0.92508,2.53899 -1.30273,3.58984 -0.36809,1.03079 -0.53231,1.5551 -0.49219,1.57422 0.28086,0.13383 1.1801,0.15683 2.69922,0.0684 1.51912,-0.0885 2.62464,-0.23925 3.31641,-0.45117 0.74145,-0.21287 1.72927,-0.76413 2.96484,-1.65235 1.23557,-0.88822 1.95962,-1.55279 2.16992,-1.99414 0.0382,-0.0802 0.0372,-0.15385 -0.004,-0.22265 -0.0315,-0.0889 -0.19504,-0.26454 -0.48829,-0.52735 -0.28368,-0.28287 -0.71819,-0.68727 -1.30468,-1.21289 -1.18254,-1.03118 -2.47658,-1.88164 -3.88086,-2.55078 z"
       transform="scale(0.26458333)"
       id="path1013" />
    <path
       style="fill:#917c6f;fill-opacity:1;stroke:#efff32;stroke-width:0.61984253;stroke-miterlimit:4;stroke-dasharray:none;stroke-opacity:1;paint-order:fill markers stroke"
       d="m 602.73242,235.21484 c 0.0866,0.008 0.15834,0.0291 0.21485,0.0645 0.20718,0.12972 0.62386,0.21955 1.24804,0.26953 0.63598,0.0311 1.32174,0.0668 2.05664,0.10742 0.75374,0.0524 1.71438,0.27598 2.88477,0.66797 1.18218,0.37315 2.34913,0.91928 3.49805,1.63867 1.71395,1.07319 2.39864,1.88348 2.05664,2.42969 -0.16511,0.26368 -1.25115,-0.0123 -3.25977,-0.82422 -1.62242,-0.67502 -3.23174,-1.18252 -4.82617,-1.52539 -1.58263,-0.3617 -2.73571,-0.46852 -3.45899,-0.31836 -0.45942,0.10562 -0.85338,0.42185 -1.18359,0.94922 -0.0708,0.11301 -0.20304,0.34645 -0.39648,0.69726 -0.16282,0.34378 -0.42993,0.89727 -0.80274,1.66016 -0.3728,0.76289 -0.74906,1.50992 -1.1289,2.24219 -0.86584,1.63404 -1.19547,2.5148 -0.98829,2.64453 0.0565,0.0354 0.13929,0.0484 0.25,0.0391 0.43813,0.0121 1.70648,0.37519 3.80469,1.08594 2.11705,0.72254 3.41195,1.23056 3.88281,1.52539 0.56505,0.3538 0.69913,0.76546 0.4043,1.23633 -0.21228,0.33902 -0.7199,0.44002 -1.52539,0.30273 -0.80549,-0.13728 -2.32302,-0.56218 -4.55078,-1.27539 -1.62488,-0.54547 -2.66031,-0.84005 -3.10547,-0.88281 -0.42633,-0.031 -0.75054,0.13237 -0.97461,0.49023 -0.0118,0.0188 -0.7296,1.20927 -2.1543,3.56836 l -1.4375,2.48242 1.44141,0.90235 c 0.84756,0.53069 2.02719,1.0331 3.53906,1.50781 1.5425,0.46767 2.89346,0.73697 4.05469,0.80859 0.78436,0.0454 1.2811,0.132 1.48828,0.26172 0.18835,0.11794 0.30474,0.34941 0.35156,0.69336 0.0586,0.32512 0.0243,0.59165 -0.10546,0.79883 -0.41277,0.65922 -1.8989,0.75096 -4.45899,0.27539 -2.52946,-0.48261 -4.77361,-1.33795 -6.73242,-2.56445 -1.18659,-0.74298 -1.79172,-1.36969 -1.8125,-1.88086 -0.0539,-0.37458 0.25262,-1.21935 0.91797,-2.5332 0.67714,-1.33269 1.71897,-3.28862 3.125,-5.86915 1.43666,-2.58755 2.62344,-4.81871 3.5625,-6.69531 0.72906,-1.45748 1.31169,-2.53554 1.74805,-3.23242 0.35378,-0.56504 0.72478,-0.98914 1.11132,-1.27148 0.41717,-0.28939 0.7356,-0.44228 0.95703,-0.46094 0.11662,-0.0187 0.21813,-0.0239 0.30469,-0.0156 z"
       transform="scale(0.26458333)"
       id="path1011" />
    <path
       style="fill:#917c6f;fill-opacity:1;stroke:#efff32;stroke-width:0.61984253;stroke-miterlimit:4;stroke-dasharray:none;stroke-opacity:1;paint-order:fill markers stroke"
       d="m 622.30859,249.48633 c 0.87531,-0.0239 1.71492,0.0561 2.51953,0.23828 0.82712,0.17166 2.06959,0.91062 3.72657,2.21875 0.73256,0.57833 1.23978,1.06517 1.52343,1.45898 0.28367,0.39382 0.49742,0.93007 0.64063,1.60938 0.10373,0.47827 0.1384,0.97397 0.10352,1.48437 -0.0211,0.49297 -0.10059,0.82558 -0.23829,1 -0.33047,0.41861 -0.56554,0.57305 -0.70507,0.46289 -0.13954,-0.11015 -0.25471,-0.34188 -0.34375,-0.69531 -0.0891,-0.35342 -0.17877,-0.72278 -0.27149,-1.10742 -0.079,-0.40208 -0.27601,-0.86991 -0.59179,-1.40234 -0.3158,-0.53244 -0.74446,-1.01064 -1.28516,-1.4375 -1.46512,-1.15667 -3.22817,-1.68601 -5.28906,-1.58594 -2.04345,0.11384 -3.5536,0.79092 -4.53125,2.0293 -0.79865,1.01163 0.1439,3.5103 2.82812,7.49804 2.12333,3.12025 2.44027,5.62214 0.95313,7.50586 -0.30294,0.38372 -0.72286,0.77427 -1.26172,1.16992 -1.47521,1.04377 -2.89909,1.44893 -4.27149,1.21485 -1.37239,-0.23409 -3.31465,-1.21583 -5.82812,-2.94532 l -2.48047,-1.70312 0.45117,-2.02148 c 0.19828,-1.00429 0.57997,-1.86497 1.14453,-2.58008 0.46818,-0.59303 0.98645,-0.96146 1.55469,-1.10742 0.56824,-0.14597 1.10551,-0.0204 1.61133,0.3789 0.38372,0.30294 0.38936,0.68923 0.0176,1.16016 -0.2754,0.34884 -0.65478,0.56029 -1.13672,0.63281 -0.46818,0.0551 -0.77051,0.16933 -0.90821,0.34375 -0.15146,0.19186 -0.26906,0.46816 -0.35351,0.82617 -0.12852,0.52142 -0.0971,0.9289 0.0957,1.22266 0.21022,0.30753 0.84816,0.88074 1.91211,1.7207 0.90698,0.71603 1.62796,1.19976 2.16406,1.45313 0.53611,0.25336 1.13823,0.38973 1.80469,0.40625 1.06579,0.0487 1.78677,-0.005 2.16406,-0.16016 0.40851,-0.15881 0.88866,-0.58748 1.43946,-1.28516 0.41309,-0.52325 0.60474,-0.9654 0.57812,-1.32617 -0.0129,-0.37821 -0.28604,-1.09009 -0.82031,-2.13476 -0.76286,-1.50826 -1.31913,-2.39844 -1.66797,-2.67383 -0.75,-0.5921 -1.3847,-2.1558 -1.9043,-4.68945 -0.50215,-2.51989 -0.49776,-4.1027 0.0117,-4.74805 0.7298,-0.92442 2.0339,-1.6083 3.91211,-2.05078 0.94599,-0.22996 1.85712,-0.35699 2.73242,-0.38086 z"
       transform="scale(0.26458333)"
       id="path1009" />
    <path
       style="fill:#917c6f;fill-opacity:1;stroke:#efff32;stroke-width:0.61984253;stroke-miterlimit:4;stroke-dasharray:none;stroke-opacity:1;paint-order:fill markers stroke"
       d="m 635.90039,261.51367 c 0.17682,-0.001 0.37381,0.0642 0.5918,0.19336 0.46741,0.25877 1.57104,1.04541 3.31054,2.36133 3.52542,2.67971 6.9585,5.18452 10.30079,7.51562 2.05176,1.44654 3.33339,2.43434 3.84375,2.96094 0.47942,0.49469 0.86294,1.0969 1.15039,1.8086 0.28744,0.71169 0.30219,1.192 0.0469,1.43945 -0.23936,0.23198 -0.64697,0.22525 -1.22461,-0.0195 -0.56168,-0.26025 -1.17483,-0.73374 -1.83984,-1.41992 -1.03618,-1.06917 -2.28544,-2.07145 -3.74805,-3.00586 l -2.2168,-1.42383 -1.66406,2.30664 c -1.07458,1.38183 -3.25805,3.90138 -6.55273,7.55859 -3.26326,3.65771 -5.07876,5.71214 -5.44727,6.16211 -0.3685,0.44997 -0.65778,0.77551 -0.86523,0.97656 -0.49469,0.47943 -0.94962,0.50313 -1.36719,0.0723 -0.4021,-0.4149 -0.18581,-1.22871 0.65039,-2.44141 0.85167,-1.19674 2.70846,-3.35284 5.57031,-6.46679 4.861,-5.32994 7.31561,-8.51236 7.36328,-9.54883 0.004,-0.25139 -0.13373,-0.52137 -0.41211,-0.80859 -0.12371,-0.12767 -0.73687,-0.59921 -1.83984,-1.41797 -1.0875,-0.80281 -1.8941,-1.47698 -2.41992,-2.01953 -0.51036,-0.52661 -1.10855,-1.01409 -1.79297,-1.46485 -0.68441,-0.45075 -1.11113,-0.76392 -1.28125,-0.93945 -0.38663,-0.39895 -0.64649,-0.81186 -0.78125,-1.23828 -0.11929,-0.41047 -0.0672,-0.72489 0.15625,-0.94141 0.13564,-0.13146 0.29193,-0.19806 0.46875,-0.19922 z"
       transform="scale(0.26458333)"
       id="path1007" />
    <path
       style="fill:#917c6f;fill-opacity:1;stroke:#efff32;stroke-width:0.61984253;stroke-miterlimit:4;stroke-dasharray:none;stroke-opacity:1;paint-order:fill markers stroke"
       d="m 659.1543,284.63281 c 0.26763,-0.0162 0.67517,0.13604 1.22265,0.45703 0.74787,0.4148 1.63008,0.99301 2.64649,1.73438 1.0296,0.75925 1.69677,1.23279 2.00195,1.42187 0.23453,0.13075 0.70752,0.6789 1.41992,1.64453 0.9103,1.23389 1.4292,2.06594 1.55469,2.49805 0.0387,0.16476 0.008,0.3682 -0.0918,0.60742 -0.0997,0.23923 -0.22968,0.41838 -0.39062,0.53711 -0.32188,0.23747 -0.67533,0.26339 -1.06055,0.0781 -0.36733,-0.19846 -0.9279,-0.69706 -1.68164,-1.49414 l -0.70117,-0.72461 -4.62695,3.49609 c -7.15002,5.46823 -10.5876,8.3901 -10.31055,8.76563 0.0132,0.0179 0.0796,0.0517 0.19922,0.10156 0.13749,0.0366 0.29558,0.0992 0.47265,0.18945 0.19027,0.10817 0.3505,0.25282 0.48243,0.43164 0.21108,0.28612 0.30879,0.58691 0.29296,0.90235 0.0153,0.32013 -0.1012,0.57311 -0.35156,0.75781 -0.39341,0.29024 -0.98824,0.27158 -1.78125,-0.0547 -0.77512,-0.33945 -2.08226,-1.10172 -3.92187,-2.28515 -1.20286,-0.76951 -1.97535,-1.38663 -2.31836,-1.85157 -0.21109,-0.28611 -0.42358,-0.72218 -0.63672,-1.31054 -0.23953,-0.62413 -0.35176,-1.09472 -0.33594,-1.41016 0.0158,-0.31544 0.15004,-0.5653 0.40039,-0.75 0.26824,-0.19789 0.50036,-0.25874 0.69531,-0.18164 0.19496,0.0771 0.44267,0.32113 0.7461,0.73242 0.46174,0.62588 1.2552,1.27138 2.3789,1.9336 l 1.60547,0.88476 4.83789,-3.94141 c 3.22527,-2.62798 5.81254,-4.6616 7.76172,-6.09961 l 2.8711,-2.11718 -0.78907,-0.61914 c -0.89679,-0.69154 -1.64899,-1.4489 -2.25586,-2.27149 -0.76517,-1.03718 -0.95005,-1.69999 -0.55664,-1.99023 0.0581,-0.0429 0.13149,-0.0669 0.22071,-0.0723 z"
       transform="scale(0.26458333)"
       id="path1005" />
    <path
       style="fill:#917c6f;fill-opacity:1;stroke:#efff32;stroke-width:0.61984253;stroke-miterlimit:4;stroke-dasharray:none;stroke-opacity:1;paint-order:fill markers stroke"
       d="m 674.04102,301.95508 c 0.60467,-0.0526 1.06635,0.21223 1.38671,0.79687 0.18154,0.3313 0.25744,0.72116 0.22461,1.16993 -0.0171,0.33876 -0.55753,1.57265 -1.62109,3.70117 -1.03339,2.13732 -1.64887,3.2604 -1.84375,3.36718 -0.11693,0.0641 -0.35163,0.42052 -0.70508,1.07032 -0.33396,0.63911 -1.00634,1.79382 -2.01758,3.46289 -0.98107,1.67788 -2.14168,3.49148 -3.48046,5.4414 -2.88449,4.21593 -4.15423,6.63419 -3.8125,7.25782 0.0427,0.0779 0.0989,0.13672 0.16992,0.17382 0.071,0.0371 0.26947,0.0286 0.5957,-0.0234 0.32623,-0.0521 0.75328,-0.17231 1.2832,-0.36133 0.54941,-0.1997 1.34425,-0.53334 2.38086,-1 1.06678,-0.45786 2.33152,-1.03668 3.79688,-1.73828 5.74636,-2.69267 9.16107,-4.18326 10.24414,-4.47266 0.96427,-0.27498 1.63264,-0.21028 2.00586,0.19336 0.0836,0.10625 0.17342,0.24648 0.26953,0.42188 0.18154,0.3313 0.18445,0.63491 0.006,0.91015 -0.16792,0.29473 -0.56388,0.61141 -1.1875,0.95313 -0.42874,0.23493 -1.13814,0.56142 -2.12695,0.97656 -0.98883,0.41514 -2.52556,1.05378 -4.61133,1.91797 -2.0751,0.88367 -4.27208,1.84668 -6.58985,2.88867 -3.07967,1.40881 -5.14154,2.22302 -6.1875,2.44141 -1.01579,0.2272 -1.72207,-0.0192 -2.11718,-0.74024 -0.69413,-1.26673 -0.81161,-2.68522 -0.35352,-4.2539 0.45809,-1.56869 1.48473,-3.48799 3.08008,-5.75586 0.76403,-1.10284 1.40362,-2.05996 1.91992,-2.875 0.53579,-0.82573 0.87405,-1.36721 1.01367,-1.6211 0.15911,-0.26456 0.31949,-0.50384 0.48047,-0.71875 0.18047,-0.22558 0.42921,-0.48872 0.74609,-0.78906 0.52939,-0.46746 1.40641,-1.84687 2.63282,-4.14062 1.24589,-2.30445 1.89362,-3.48364 1.9414,-3.53516 0.0283,-0.0409 0.0311,-0.0802 0.01,-0.11914 -0.10679,-0.19488 -1.2405,0.18602 -3.40234,1.14258 -2.14238,0.94588 -4.18005,1.9467 -6.10938,3.0039 -0.9939,0.54462 -1.83927,1.05922 -2.53711,1.54297 -0.69784,0.48375 -1.14301,0.77993 -1.33789,0.88672 -0.9939,0.54462 -2.02439,0.93109 -3.08984,1.16016 -1.03529,0.23787 -1.63774,0.20048 -1.8086,-0.11133 -0.2368,-0.4784 -0.33037,-0.85836 -0.28125,-1.13867 0.0598,-0.26083 0.37313,-0.60967 0.94336,-1.04883 0.58972,-0.44984 1.6067,-1.0711 3.04883,-1.86133 2.49449,-1.36689 5.86415,-3.12459 10.10938,-5.27344 4.2647,-2.15952 6.57524,-3.25948 6.93164,-3.30273 z"
       transform="scale(0.26458333)"
       id="path1003" />
    <path
       style="fill:#917c6f;fill-opacity:1;stroke:#efff32;stroke-width:0.61984253;stroke-miterlimit:4;stroke-dasharray:none;stroke-opacity:1;paint-order:fill markers stroke"
       d="m 677.65039,334.36914 c 1.1053,0.0392 2.70047,0.30991 4.78516,0.81445 1.46083,0.35735 2.78298,0.84941 3.96484,1.47657 1.18186,0.62715 2.05285,1.21739 2.61328,1.76757 0.56819,0.57102 1.08827,1.07686 1.56055,1.51758 0.50085,0.45381 0.87804,0.70451 1.13281,0.75196 0.43156,0.0765 0.80721,0.54064 1.125,1.39453 0.34105,0.91637 0.42086,1.74028 0.24219,2.4707 -0.1501,0.74349 -0.42266,1.18867 -0.81836,1.33594 -0.24992,0.093 -0.67082,0.10686 -1.26367,0.043 -0.57203,-0.0717 -0.909,-0.24293 -1.00977,-0.51368 -0.0853,-0.22909 0.085,-0.50406 0.50977,-0.82812 0.44558,-0.33181 0.6104,-0.6544 0.49414,-0.9668 -0.11627,-0.3124 -0.32567,-0.68468 -0.62891,-1.11719 -0.30323,-0.43249 -0.79205,-0.95024 -1.4668,-1.55273 -0.66698,-0.58166 -1.43273,-1.13915 -2.29492,-1.67187 -0.85443,-0.5119 -1.97161,-0.9965 -3.35156,-1.45508 -1.35913,-0.46634 -2.83319,-0.79512 -4.42187,-0.98633 -1.44048,-0.17523 -2.49021,-0.22353 -3.14844,-0.14453 -0.65823,0.079 -1.69512,0.38113 -3.11133,0.9082 -2.04101,0.75961 -3.37029,1.45676 -3.98828,2.08984 -0.59716,0.62535 -0.71391,1.4274 -0.34961,2.40626 0.77511,2.08265 2.31056,3.46716 4.60547,4.15429 1.14358,0.33316 2.32531,0.54526 3.54492,0.63672 1.21961,0.0915 2.09914,0.0375 2.64062,-0.16406 0.33323,-0.12402 0.57546,-0.36866 0.72461,-0.73242 0.17774,-0.35069 0.216,-0.6609 0.11524,-0.93164 -0.062,-0.16662 -0.262,-0.35424 -0.59961,-0.56055 -0.30903,-0.19324 -0.57997,-0.60177 -0.8125,-1.22656 -0.24804,-0.66646 -0.36706,-1.36879 -0.35742,-2.10743 0.01,-0.73863 0.2951,-1.21259 0.85742,-1.42187 0.35405,-0.13177 0.68457,-0.0766 0.98828,0.16602 0.30371,0.24262 0.59105,0.53947 0.86328,0.88867 0.27223,0.3492 0.52185,0.53984 0.74805,0.57422 0.20537,0.0421 0.42372,0.3752 0.65625,1 0.30229,0.81223 0.53442,1.81684 0.69531,3.01367 0.16089,1.19682 0.16176,2.02766 0.002,2.49023 -0.27505,0.79 -1.36561,1.717 -3.26953,2.78125 -1.89616,1.08509 -4.1571,2.11516 -6.78125,3.0918 -1.37455,0.51157 -2.25509,0.62757 -2.64453,0.3457 -0.20779,-0.11235 -0.35022,-0.27415 -0.42773,-0.48242 -0.0775,-0.20827 -0.0547,-0.46488 0.0684,-0.77148 0.24068,-0.56381 1.51637,-1.27635 3.82812,-2.13672 l 3.56055,-1.32422 -2.02735,-0.38477 c -2.3995,-0.45851 -4.4299,-1.2316 -6.09179,-2.32031 -1.64107,-1.09646 -2.72091,-2.3429 -3.24024,-3.73828 -0.30229,-0.81224 -0.38802,-1.64463 -0.25586,-2.5 0.0901,-0.65001 0.28319,-1.1855 0.57813,-1.60352 0.32352,-0.40494 0.94549,-0.93148 1.86523,-1.58203 0.96672,-0.71545 1.89743,-1.24092 2.79297,-1.57422 0.6248,-0.23253 1.4701,-0.47562 2.53711,-0.73047 1.74364,-0.41182 3.16418,-0.60817 4.26172,-0.58984 z"
       transform="scale(0.26458333)"
       id="path1001" />
    <path
       style="fill:#917c6f;fill-opacity:1;stroke:#efff32;stroke-width:0.61984253;stroke-miterlimit:4;stroke-dasharray:none;stroke-opacity:1;paint-order:fill markers stroke"
       d="m 353.98633,507.51172 c 0.7401,0.004 1.42459,0.15882 2.05078,0.46289 1.25237,0.60814 2.84315,2.09232 4.77344,4.45508 l 1.90429,2.32812 -0.99804,1.81641 c -0.47093,0.90891 -1.07651,1.62731 -1.81836,2.15625 -0.6152,0.43863 -1.21635,0.64749 -1.80274,0.62891 -0.58639,-0.0186 -1.06727,-0.28973 -1.4414,-0.81446 -0.28383,-0.39806 -0.17995,-0.77081 0.30859,-1.11914 0.36188,-0.25802 0.78456,-0.35405 1.26758,-0.28906 0.46492,0.0779 0.78781,0.0509 0.96875,-0.0781 0.19903,-0.14191 0.38921,-0.37123 0.57031,-0.6914 0.26906,-0.46476 0.35109,-0.86526 0.24805,-1.20117 -0.11595,-0.35401 -0.56656,-1.08377 -1.35352,-2.1875 -0.67085,-0.94089 -1.22984,-1.60697 -1.67383,-2 -0.44399,-0.39304 -0.98382,-0.69055 -1.61914,-0.89258 -1.00977,-0.34444 -1.71743,-0.49475 -2.12304,-0.45117 -0.43661,0.0384 -1.01648,0.31403 -1.74024,0.83007 -0.54282,0.38703 -0.85056,0.75749 -0.92578,1.11133 -0.0933,0.36675 -0.0298,1.12697 0.19141,2.2793 0.31116,1.66131 0.59549,2.67328 0.85351,3.03515 0.55475,0.77804 0.72839,2.45527 0.51953,5.03321 -0.22175,2.55984 -0.66841,4.0793 -1.33789,4.55664 -0.95898,0.68375 -2.40108,0.9748 -4.32812,0.875 -1.94514,-0.0869 -3.64061,-0.52867 -5.08399,-1.32813 -0.74623,-0.39587 -1.73143,-1.4549 -2.95703,-3.17382 -0.54184,-0.75995 -0.89428,-1.3688 -1.05664,-1.82618 -0.16236,-0.45738 -0.21631,-1.03038 -0.16406,-1.72265 0.034,-0.48821 0.13838,-0.97279 0.31445,-1.45313 0.15798,-0.46744 0.32688,-0.76552 0.50782,-0.89453 0.43425,-0.30962 0.70343,-0.3928 0.80664,-0.24805 0.1032,0.14476 0.14799,0.39944 0.13476,0.76368 -0.0132,0.36423 -0.0284,0.74344 -0.0469,1.13867 -0.0365,0.40813 0.0213,0.91226 0.17578,1.51172 0.15449,0.59945 0.4321,1.17932 0.83203,1.74023 1.08369,1.51989 2.62992,2.52039 4.63672,3 1.9939,0.46152 3.6333,0.23433 4.91797,-0.68164 1.04945,-0.74826 0.84231,-3.41141 -0.6211,-7.99023 -1.16717,-3.58917 -0.77445,-6.0813 1.17969,-7.47461 0.39807,-0.28383 0.91113,-0.54016 1.53906,-0.76953 0.85403,-0.29506 1.65052,-0.44006 2.39063,-0.43555 z"
       transform="scale(0.26458333)"
       id="path999" />
    <path
       style="fill:#917c6f;fill-opacity:1;stroke:#efff32;stroke-width:0.61984253;stroke-miterlimit:4;stroke-dasharray:none;stroke-opacity:1;paint-order:fill markers stroke"
       d="m 365.94531,527.31055 c 1.87242,-0.0519 3.62048,0.10391 5.24414,0.46875 1.60747,0.38005 2.97307,0.94122 4.09766,1.68359 0.47762,0.31353 0.9135,0.46836 1.30664,0.46484 0.40933,-0.0187 0.71819,-0.11091 0.92773,-0.27734 0.20955,-0.16642 0.45558,-0.24511 0.73829,-0.23633 0.28368,-0.0226 0.57022,0.12006 0.85937,0.42774 0.47177,0.502 0.61034,0.84277 0.41602,1.02539 -0.11336,0.10653 -0.1482,0.26311 -0.10743,0.46875 0.0408,0.20564 0.11125,0.41155 0.21485,0.61914 0.0884,0.1914 0.11245,0.4292 0.0723,0.71094 -0.0402,0.28173 -0.18816,0.54361 -0.44726,0.7871 -0.43723,0.4109 -0.85727,0.51561 -1.25977,0.31446 -0.4025,-0.20115 -1.23494,0.29149 -2.49804,1.47851 -0.66394,0.62395 -1.29831,1.29745 -1.90235,2.01758 -0.62023,0.73535 -1.53606,1.85433 -2.74609,3.35742 -1.24145,1.50212 -2.63545,3.13273 -4.1836,4.89258 l -3.83789,4.33789 0.89454,0.80664 c 0.3824,0.34202 0.85548,0.5679 1.41796,0.67969 0.5463,0.12701 1.02329,0.1963 1.43164,0.20899 0.40836,0.0127 0.66496,0.0761 0.77149,0.18945 0.10653,0.11335 0.14606,0.38307 0.11719,0.80664 -0.0451,0.43879 -0.15586,0.7408 -0.33399,0.9082 -0.22671,0.21306 -0.60134,0.36709 -1.12305,0.46094 -0.5217,0.0938 -0.8658,0.0512 -1.0332,-0.12695 -0.19783,-0.21052 -0.62022,-0.26964 -1.26758,-0.17969 -0.63213,0.10614 -1.64542,-0.438 -3.03906,-1.62891 -1.75985,-1.54814 -2.89038,-2.58866 -3.39258,-3.12304 -0.63916,-0.68014 -1.3338,-1.5987 -2.08398,-2.75391 -2.17738,-3.29043 -3.33001,-5.95824 -3.45508,-8.00586 -0.14126,-2.0324 0.74345,-3.94644 2.6543,-5.74219 1.70033,-1.59791 3.58619,-2.82042 5.65625,-3.66797 2.05483,-0.86373 4.01821,-1.32114 5.89062,-1.37304 z"
       transform="scale(0.26458333)"
       id="path997" />
    <path
       style="fill:#917c6f;fill-opacity:1;stroke:#efff32;stroke-width:0.61984253;stroke-miterlimit:4;stroke-dasharray:none;stroke-opacity:1;paint-order:fill markers stroke"
       d="m 366.1582,529.58008 c -2.1399,0.0593 -3.96939,0.46603 -5.48632,1.2207 -1.53216,0.73848 -3.14733,1.90599 -4.84766,3.50391 -0.71252,0.6696 -1.1535,1.19043 -1.32227,1.5625 -0.18398,0.35587 -0.31179,0.91937 -0.38281,1.6875 -0.0548,0.75291 0.0421,1.45519 0.28906,2.10742 0.24701,0.65223 0.76666,1.61229 1.56055,2.87891 1.50231,2.24759 2.71817,3.86375 3.64648,4.85156 0.42611,0.45342 0.77158,0.70826 1.03711,0.76367 0.26554,0.0554 0.6339,-0.1368 1.10352,-0.57813 0.502,-0.47176 2.19097,-2.48698 5.06836,-6.04492 2.86217,-3.57413 4.79482,-5.83381 5.79883,-6.77734 0.32387,-0.30437 0.66327,-0.5913 1.01757,-0.86328 l 1.42188,-0.9707 -1.23242,-1.31055 c -1.35442,-1.44123 -3.91182,-2.11887 -7.67188,-2.03125 z"
       transform="scale(0.26458333)"
       id="path995" />
    <path
       style="fill:#917c6f;fill-opacity:1;stroke:#efff32;stroke-width:0.61984253;stroke-miterlimit:4;stroke-dasharray:none;stroke-opacity:1;paint-order:fill markers stroke"
       d="m 388.66992,542.11523 c 0.37265,-0.0282 0.72143,0.0828 1.04688,0.33399 1.14346,0.88256 1.82058,2.13504 2.02929,3.75586 0.20872,1.62082 0.0356,3.7888 -0.51757,6.50586 -0.25824,1.31655 -0.46089,2.45263 -0.60743,3.40625 -0.16011,0.97121 -0.25308,1.60012 -0.27929,1.88867 -0.0398,0.30614 -0.0909,0.59016 -0.15235,0.85156 -0.075,0.27899 -0.19716,0.61935 -0.36718,1.02149 -0.29778,0.64038 -0.54914,2.25663 -0.75391,4.84961 -0.21835,2.61056 -0.33819,3.94927 -0.36133,4.01562 -0.01,0.0488 0.004,0.0861 0.0391,0.11328 0.17592,0.13578 1.06257,-0.66764 2.66016,-2.41015 1.58401,-1.72493 3.04641,-3.45765 4.39063,-5.19922 0.69247,-0.89718 1.26338,-1.7069 1.70898,-2.42969 0.44559,-0.7228 0.73531,-1.17174 0.87109,-1.34766 0.69248,-0.89717 1.48079,-1.66406 2.36524,-2.30078 0.85327,-0.6327 1.42166,-0.84029 1.70312,-0.62304 0.40862,0.34346 0.6456,0.65317 0.71289,0.92968 0.0497,0.26294 -0.0988,0.70902 -0.44531,1.33985 -0.36011,0.64841 -1.04211,1.62399 -2.04687,2.92578 -1.73798,2.25173 -4.12158,5.21324 -7.1504,8.88281 -3.04239,3.68716 -4.71812,5.62033 -5.02734,5.80273 -0.53296,0.29044 -1.06405,0.23351 -1.5918,-0.17382 -0.29905,-0.23083 -0.52217,-0.56005 -0.67187,-0.98438 -0.12007,-0.31725 -0.11981,-1.66274 0.002,-4.03906 0.0906,-2.37231 0.20407,-3.64635 0.33985,-3.82227 0.0815,-0.10555 0.15326,-0.5267 0.21679,-1.26367 0.05,-0.71938 0.20501,-2.04607 0.46289,-3.98047 0.22672,-1.93038 0.56231,-4.05791 1.00782,-6.38086 0.95394,-5.01839 1.14887,-7.74519 0.58593,-8.17968 -0.0704,-0.0543 -0.14467,-0.0843 -0.22461,-0.0898 -0.0799,-0.006 -0.25906,0.0814 -0.53711,0.25977 -0.27804,0.17839 -0.62143,0.46022 -1.03124,0.8457 -0.4234,0.40307 -1.01841,1.02628 -1.78126,1.86914 -0.79401,0.84688 -1.72164,1.88536 -2.7832,3.11524 -4.18636,4.76922 -6.71733,7.50406 -7.59375,8.20312 -0.77334,0.63826 -1.41235,0.84727 -1.91601,0.62695 -0.11913,-0.0639 -0.25769,-0.15709 -0.41602,-0.27929 -0.29906,-0.23083 -0.42056,-0.5083 -0.36719,-0.83203 0.0358,-0.33732 0.27059,-0.78863 0.70508,-1.35157 0.29872,-0.38701 0.81694,-0.96763 1.55664,-1.74414 0.7397,-0.77651 1.89215,-1.97806 3.45703,-3.60547 1.54729,-1.64098 3.17465,-3.40386 4.88086,-5.28711 2.25736,-2.52457 3.82054,-4.09571 4.69141,-4.71484 0.41985,-0.30756 0.8168,-0.47572 1.18945,-0.50391 z"
       transform="scale(0.26458333)"
       id="path993" />
    <path
       style="fill:#917c6f;fill-opacity:1;stroke:#efff32;stroke-width:0.61984253;stroke-miterlimit:4;stroke-dasharray:none;stroke-opacity:1;paint-order:fill markers stroke"
       d="m 408.82031,559.73633 c 0.65832,-0.005 1.46973,0.0652 2.43555,0.20898 2.54516,0.3915 4.81873,1.16493 6.82031,2.32031 1.2125,0.6999 1.83784,1.30436 1.87695,1.81446 0.0673,0.3724 -0.20646,1.22756 -0.82421,2.56445 -0.62886,1.35614 -1.59963,3.34918 -2.91211,5.97852 -1.34285,2.63747 -2.45119,4.91121 -3.32227,6.82031 -0.67627,1.48272 -1.21981,2.57892 -1.63086,3.29102 -0.33328,0.57737 -0.68829,1.0145 -1.06445,1.31054 -0.40651,0.30418 -0.71883,0.4695 -0.93945,0.4961 -0.23174,0.0458 -0.40601,0.0354 -0.52149,-0.0312 -0.2117,-0.12221 -0.63029,-0.19707 -1.25586,-0.22461 -0.63668,-0.008 -1.32271,-0.019 -2.05859,-0.0332 -0.75513,-0.0254 -1.7245,-0.21278 -2.90821,-0.5625 -1.19481,-0.33047 -2.37873,-0.83404 -3.55273,-1.51172 -1.75138,-1.01096 -2.46671,-1.79733 -2.14453,-2.35546 0.15553,-0.26945 1.25064,-0.0343 3.28711,0.70507 1.64561,0.61635 3.27124,1.06811 4.87695,1.35352 1.5946,0.30465 2.75133,0.36939 3.46875,0.19336 0.45533,-0.12205 0.83933,-0.4533 1.15039,-0.99219 0.0667,-0.11547 0.19037,-0.35145 0.3711,-0.70898 0.15037,-0.3494 0.39701,-0.91172 0.74218,-1.6875 0.34518,-0.77579 0.69552,-1.53778 1.04883,-2.28321 0.80662,-1.66407 1.10429,-2.55553 0.89258,-2.67773 -0.0577,-0.0333 -0.14164,-0.0445 -0.25195,-0.0312 -0.43828,0.004 -1.71943,-0.3123 -3.8418,-0.94727 -2.14162,-0.64607 -3.45245,-1.10702 -3.93359,-1.38476 -0.57738,-0.33329 -0.72696,-0.74151 -0.44922,-1.22266 0.19997,-0.34642 0.70377,-0.4657 1.51367,-0.35742 0.80989,0.10828 2.34182,0.48051 4.59375,1.11328 1.64342,0.48679 2.68835,0.74277 3.13477,0.76953 0.42716,0.0157 0.74595,-0.15972 0.95703,-0.52539 0.0111,-0.0192 0.6863,-1.23386 2.02539,-3.64258 l 1.3457,-2.53125 -1.47266,-0.84961 c -0.86606,-0.49992 -2.0619,-0.96073 -3.58984,-1.38085 -1.5583,-0.412 -2.91898,-0.63223 -4.08203,-0.66211 -0.78549,-0.0172 -1.28439,-0.0887 -1.49609,-0.21094 -0.19246,-0.1111 -0.31781,-0.33764 -0.37696,-0.67969 -0.0702,-0.3228 -0.0441,-0.58908 0.0781,-0.80078 0.24302,-0.42101 0.91257,-0.63641 2.00976,-0.64453 z"
       transform="scale(0.26458333)"
       id="path991" />
    <path
       style="fill:#917c6f;fill-opacity:1;stroke:#efff32;stroke-width:0.61984253;stroke-miterlimit:4;stroke-dasharray:none;stroke-opacity:1;paint-order:fill markers stroke"
       d="m 427.0293,567.23633 c 0.10724,0.003 0.21216,0.025 0.31445,0.0684 0.20457,0.0868 0.37544,0.28003 0.51367,0.58008 0.24424,0.56227 -0.1147,1.97925 -1.07812,4.25 l -1.48438,3.49804 1.67188,-1.20898 c 1.98192,-1.42824 3.93817,-2.37273 5.87109,-2.83203 1.92425,-0.43885 3.57273,-0.36668 4.94336,0.21484 0.79783,0.3385 1.46155,0.84942 1.99219,1.5332 0.41037,0.51207 0.66654,1.01802 0.76758,1.51954 0.0719,0.51329 0.0285,1.32812 -0.13086,2.44335 -0.14448,1.19397 -0.40413,2.23168 -0.77735,3.11133 -0.26038,0.61372 -0.66485,1.39538 -1.21289,2.34571 -0.89893,1.54977 -1.73056,2.71715 -2.49804,3.50195 -0.78795,0.77612 -2.08182,1.74813 -3.88086,2.91601 -1.26342,0.81578 -2.52913,1.43753 -3.79688,1.86524 -1.26775,0.42771 -2.29526,0.65643 -3.08008,0.68555 -0.80527,0.0204 -1.52911,0.0496 -2.17383,0.0898 -0.67385,0.0521 -1.11663,0.15415 -1.32617,0.30664 -0.35212,0.26098 -0.94641,0.21328 -1.78515,-0.14258 -0.90012,-0.38189 -1.555,-0.88782 -1.96289,-1.51953 -0.43703,-0.61993 -0.57312,-1.12499 -0.40821,-1.51367 0.10416,-0.24549 0.3841,-0.56045 0.83789,-0.94727 0.44512,-0.36636 0.80047,-0.49369 1.06641,-0.38086 0.22503,0.0955 0.30838,0.40819 0.25195,0.93946 -0.0651,0.55172 0.0564,0.89324 0.36328,1.02343 0.30686,0.1302 0.72155,0.23367 1.24414,0.31055 0.5226,0.0769 1.23536,0.0782 2.13672,0.002 0.88091,-0.0849 1.80958,-0.25723 2.78907,-0.51757 0.95902,-0.26902 2.07993,-0.74809 3.36132,-1.43555 1.27272,-0.667 2.52529,-1.51232 3.75586,-2.53516 1.11712,-0.92613 1.87268,-1.655 2.26758,-2.1875 0.39491,-0.5325 0.88636,-1.49368 1.47656,-2.88476 0.85059,-2.0048 1.25992,-3.44998 1.22461,-4.33399 -0.044,-0.86355 -0.54828,-1.49831 -1.50976,-1.90625 -2.04572,-0.86794 -4.1055,-0.70491 -6.18164,0.49024 -1.02785,0.60191 -1.99395,1.31349 -2.89844,2.13672 -0.90449,0.82323 -1.46965,1.50131 -1.69531,2.0332 -0.13887,0.32731 -0.12859,0.67098 0.0332,1.0293 0.13265,0.37009 0.33171,0.61177 0.59766,0.72461 0.16365,0.0694 0.43648,0.0508 0.81836,-0.0527 0.35273,-0.0917 0.83745,-0.006 1.45117,0.25391 0.65463,0.27774 1.24537,0.67295 1.77539,1.1875 0.53002,0.51455 0.67966,1.04922 0.44531,1.60156 -0.14755,0.34777 -0.41386,0.54764 -0.79883,0.60156 -0.38497,0.0539 -0.79947,0.0598 -1.24023,0.0176 -0.44076,-0.0422 -0.75124,0.008 -0.93164,0.14844 -0.17172,0.12026 -0.56402,0.0494 -1.17774,-0.21094 -0.79783,-0.3385 -1.68594,-0.85896 -2.66601,-1.56445 -0.98008,-0.7055 -1.58429,-1.27699 -1.81055,-1.71094 -0.38495,-0.74268 -0.30849,-2.17062 0.22656,-4.28516 0.5146,-2.12321 1.3185,-4.47318 2.41211,-7.05078 0.57285,-1.35017 1.09403,-2.0709 1.56641,-2.16015 0.11221,-0.0369 0.22283,-0.0521 0.33008,-0.0488 z"
       transform="scale(0.26458333)"
       id="path989" />
    <path
       style="fill:#917c6f;fill-opacity:1;stroke:#efff32;stroke-width:0.61984253;stroke-miterlimit:4;stroke-dasharray:none;stroke-opacity:1;paint-order:fill markers stroke"
       d="m 452.09961,577.42773 c 1.85895,-0.0137 3.62271,0.21812 5.28906,0.69532 1.3459,0.38543 2.10024,0.81925 2.26172,1.30468 0.15547,0.34503 0.094,1.24081 -0.18164,2.6875 -0.28172,1.46806 -0.74029,3.63694 -1.37695,6.50586 -0.66415,2.88417 -1.1875,5.35865 -1.57032,7.42188 -0.29706,1.60236 -0.55879,2.79744 -0.78515,3.58789 -0.18354,0.6409 -0.42158,1.15097 -0.71485,1.5293 -0.32074,0.39357 -0.58535,0.62974 -0.79296,0.70898 -0.21374,0.1006 -0.3855,0.13241 -0.51368,0.0957 -0.23499,-0.0673 -0.65786,-0.0369 -1.27148,0.0879 -0.61974,0.14614 -1.28843,0.30045 -2.00586,0.46485 -0.73879,0.15828 -1.72582,0.21085 -2.95898,0.1582 -1.23928,-0.0313 -2.50933,-0.23227 -3.8125,-0.60547 -1.94408,-0.55673 -2.82782,-1.14608 -2.6504,-1.76562 0.0857,-0.29909 1.20643,-0.33547 3.36133,-0.11133 1.74589,0.19947 3.43157,0.24281 5.0586,0.13086 1.62091,-0.0906 2.75867,-0.30782 3.41211,-0.65234 0.41222,-0.22869 0.70369,-0.64206 0.875,-1.24024 0.0367,-0.12818 0.0987,-0.38864 0.1875,-0.7793 0.0613,-0.37541 0.16547,-0.98012 0.3125,-1.8164 0.14702,-0.83629 0.30257,-1.65995 0.46484,-2.46875 0.37961,-1.80988 0.4518,-2.74911 0.2168,-2.81641 -0.0641,-0.0184 -0.14815,-0.006 -0.25196,0.0332 -0.42435,0.10963 -1.74406,0.1138 -3.95703,0.0117 -2.23433,-0.1082 -3.61825,-0.23963 -4.15234,-0.39258 -0.64091,-0.18353 -0.88537,-0.54208 -0.73242,-1.07617 0.11012,-0.38454 0.57275,-0.62181 1.38476,-0.71289 0.81201,-0.0911 2.38647,-0.10373 4.72461,-0.0351 1.71239,0.0743 2.78891,0.0704 3.22852,-0.0117 0.41824,-0.0883 0.68454,-0.33433 0.80078,-0.74024 0.006,-0.0214 0.36808,-1.36213 1.08398,-4.02343 l 0.69336,-2.78516 -1.63476,-0.4668 c -0.96136,-0.27531 -2.23416,-0.4331 -3.81836,-0.4707 -1.61169,-0.0223 -2.98543,0.093 -4.1211,0.3457 -0.76627,0.17353 -1.26695,0.22746 -1.50195,0.16016 -0.21363,-0.0612 -0.39103,-0.25082 -0.53125,-0.56836 -0.14634,-0.29618 -0.18644,-0.56188 -0.11914,-0.79688 0.21413,-0.74772 1.61729,-1.24627 4.20898,-1.49804 0.64106,-0.0591 1.27098,-0.0911 1.89063,-0.0957 z"
       transform="scale(0.26458333)"
       id="path987" />
    <path
       style="fill:#917c6f;fill-opacity:1;stroke:#efff32;stroke-width:0.61984253;stroke-miterlimit:4;stroke-dasharray:none;stroke-opacity:1;paint-order:fill markers stroke"
       d="m 476.6543,582.46289 c 1.38373,-8.6e-4 2.58208,0.0788 3.59179,0.23828 0.92191,0.14557 1.49906,0.40499 1.73243,0.7793 0.37777,0.59959 0.44335,2.31933 0.19726,5.16015 -0.11784,1.17377 -0.41179,3.81726 -0.88086,7.92774 -0.67356,5.83299 -1.18792,9.87975 -1.54492,12.14062 -0.0867,0.54876 -0.29575,0.79613 -0.625,0.74414 -0.43901,-0.0693 -0.75797,-0.53624 -0.95898,-1.40039 -0.17098,-0.76941 0.0892,-4.27082 0.78125,-10.50585 0.71516,-6.52386 1.04328,-10.24119 0.98437,-11.1504 -0.0462,-0.70472 -0.27542,-1.11094 -0.68555,-1.2207 -0.0843,-0.0358 -0.21307,-0.068 -0.38867,-0.0957 -0.5707,-0.0901 -1.91318,-0.0664 -4.02734,0.0723 -2.13958,0.15711 -4.15613,0.32282 -6.05078,0.4961 -1.92008,0.19176 -2.91462,0.28188 -2.98047,0.27148 -0.37316,-0.0589 -0.64587,-0.24834 -0.82031,-0.56836 -0.1964,-0.32348 -0.28164,-0.57244 -0.25391,-0.74804 0.0243,-0.15366 0.27642,-0.39536 0.75586,-0.72461 0.79252,-0.4598 2.94738,-0.84958 6.46289,-1.17188 1.75776,-0.16115 3.3272,-0.24328 4.71094,-0.24414 z"
       transform="scale(0.26458333)"
       id="path824" />
    <path
       style="fill:#ff7f2a;fill-opacity:1;stroke:#efff32;stroke-width:0.164;stroke-miterlimit:4;stroke-dasharray:none;stroke-opacity:1;paint-order:fill markers stroke"
       d="M 132.92177,61.702488 A 46.486061,46.486061 0 0 1 179.40782,108.18854 46.486061,46.486061 0 0 1 132.92177,154.67459 46.486061,46.486061 0 0 1 86.435718,108.18854 46.486061,46.486061 0 0 1 132.92177,61.702488 Z"
       id="rect815"
       inkscape:connector-curvature="0" />
    <ellipse
       style="fill:#000080;fill-opacity:1;stroke:#efff32;stroke-width:0.17419013;stroke-miterlimit:4;stroke-dasharray:none;stroke-opacity:1;paint-order:fill markers stroke"
       id="path817"
       cx="132.92177"
       cy="108.18854"
       rx="46.653202"
       ry="46.486061" />
    <path
       sodipodi:type="star"
       style="opacity:1;fill:#ffffff;fill-opacity:1;stroke:#efff32;stroke-width:0.164;stroke-miterlimit:4;stroke-dasharray:none;stroke-opacity:1;paint-order:fill markers stroke"
       id="path922-38"
       sodipodi:sides="5"
       sodipodi:cx="143.70065"
       sodipodi:cy="138.67123"
       sodipodi:r1="4.888546"
       sodipodi:r2="2.4442728"
       sodipodi:arg1="0.65569563"
       sodipodi:arg2="1.2840142"
       inkscape:flatsided="false"
       inkscape:rounded="0"
       inkscape:randomized="0"
       d="m 147.57543,141.65183 -3.18337,-0.63615 -2.32875,2.26174 -0.3787,-3.22415 -2.87067,-1.51585 2.94932,-1.35649 0.55458,-3.19859 2.20149,2.3858 3.21341,-0.46098 -1.58873,2.83098 z"
       inkscape:transform-center-x="0.42731336"
       inkscape:transform-center-y="-0.041354122" />
    <path
       sodipodi:type="star"
       style="opacity:1;fill:#dd55ff;fill-opacity:1;stroke:#efff32;stroke-width:0.164;stroke-miterlimit:4;stroke-dasharray:none;stroke-opacity:1;paint-order:fill markers stroke"
       id="path922"
       sodipodi:sides="5"
       sodipodi:cx="93.521383"
       sodipodi:cy="121.81183"
       sodipodi:r1="4.888546"
       sodipodi:r2="2.4442728"
       sodipodi:arg1="0.65569563"
       sodipodi:arg2="1.2840142"
       inkscape:flatsided="false"
       inkscape:rounded="0"
       inkscape:randomized="0"
       d="m 97.396164,124.79243 -3.183374,-0.63616 -2.328751,2.26175 -0.378699,-3.22415 -2.870669,-1.51586 2.949325,-1.35648 0.554579,-3.19859 2.201483,2.38579 3.213418,-0.46098 -1.588734,2.83099 z"
       inkscape:transform-center-x="0.42731336"
       inkscape:transform-center-y="-0.041354122" />
    <path
       sodipodi:type="star"
       style="opacity:1;fill:#ccff00;fill-opacity:1;stroke:#efff32;stroke-width:0.164;stroke-miterlimit:4;stroke-dasharray:none;stroke-opacity:1;paint-order:fill markers stroke"
       id="path922-8"
       sodipodi:sides="5"
       sodipodi:cx="113.56183"
       sodipodi:cy="78.309654"
       sodipodi:r1="4.888546"
       sodipodi:r2="2.4442728"
       sodipodi:arg1="0.65569563"
       sodipodi:arg2="1.2840142"
       inkscape:flatsided="false"
       inkscape:rounded="0"
       inkscape:randomized="0"
       d="m 117.43661,81.290253 -3.18338,-0.636152 -2.32875,2.261743 -0.3787,-3.224151 -2.87067,-1.515856 2.94933,-1.356482 0.55458,-3.198594 2.20148,2.385799 3.21342,-0.460984 -1.58873,2.830987 z"
       inkscape:transform-center-x="0.42731336"
       inkscape:transform-center-y="-0.041354122" />
    <path
       sodipodi:type="star"
       style="opacity:1;fill:#3e4837;fill-opacity:1;stroke:#efff32;stroke-width:0.164;stroke-miterlimit:4;stroke-dasharray:none;stroke-opacity:1;paint-order:fill markers stroke"
       id="path922-8-3"
       sodipodi:sides="5"
       sodipodi:cx="64.32357"
       sodipodi:cy="132.10683"
       sodipodi:r1="4.888546"
       sodipodi:r2="2.4442728"
       sodipodi:arg1="0.65569563"
       sodipodi:arg2="1.2840142"
       inkscape:flatsided="false"
       inkscape:rounded="0"
       inkscape:randomized="0"
       d="m 68.198349,135.08743 -3.183374,-0.63616 -2.32875,2.26175 -0.3787,-3.22415 -2.870669,-1.51586 2.949325,-1.35648 0.55458,-3.1986 2.201482,2.3858 3.213418,-0.46098 -1.588734,2.83099 z"
       inkscape:transform-center-x="0.35971234"
       inkscape:transform-center-y="-0.032228328"
       transform="matrix(0.84179982,0,0,0.7792009,78.971713,33.910121)" />
    <path
       sodipodi:type="star"
       style="opacity:1;fill:#6f6f91;fill-opacity:1;stroke:#efff32;stroke-width:0.164;stroke-miterlimit:4;stroke-dasharray:none;stroke-opacity:1;paint-order:fill markers stroke"
       id="path922-8-1"
       sodipodi:sides="5"
       sodipodi:cx="122.54455"
       sodipodi:cy="133.77575"
       sodipodi:r1="4.888546"
       sodipodi:r2="2.4442728"
       sodipodi:arg1="0.65569563"
       sodipodi:arg2="1.2840142"
       inkscape:flatsided="false"
       inkscape:rounded="0"
       inkscape:randomized="0"
       d="m 126.41933,136.75636 -3.18338,-0.63616 -2.32875,2.26175 -0.3787,-3.22415 -2.87067,-1.51586 2.94933,-1.35648 0.55458,-3.1986 2.20148,2.3858 3.21342,-0.46098 -1.58874,2.83099 z"
       inkscape:transform-center-x="0.42731336"
       inkscape:transform-center-y="-0.041354122" />
    <path
       sodipodi:type="star"
       style="opacity:1;fill:#00aa88;fill-opacity:1;stroke:#efff32;stroke-width:0.164;stroke-miterlimit:4;stroke-dasharray:none;stroke-opacity:1;paint-order:fill markers stroke"
       id="path922-8-05"
       sodipodi:sides="5"
       sodipodi:cx="126.7223"
       sodipodi:cy="68.221935"
       sodipodi:r1="4.888546"
       sodipodi:r2="2.4442728"
       sodipodi:arg1="0.65569563"
       sodipodi:arg2="1.2840142"
       inkscape:flatsided="false"
       inkscape:rounded="0"
       inkscape:randomized="0"
       d="m 130.59708,71.202531 -3.18338,-0.636153 -2.32875,2.261743 -0.3787,-3.224151 -2.87067,-1.515856 2.94933,-1.356482 0.55458,-3.198594 2.20148,2.385799 3.21342,-0.460983 -1.58874,2.830986 z"
       inkscape:transform-center-x="0.42731336"
       inkscape:transform-center-y="-0.041354122" />
    <path
       sodipodi:type="star"
       style="opacity:1;fill:#d40055;fill-opacity:1;stroke:#efff32;stroke-width:0.164;stroke-miterlimit:4;stroke-dasharray:none;stroke-opacity:1;paint-order:fill markers stroke"
       id="path922-8-03"
       sodipodi:sides="5"
       sodipodi:cx="115.06867"
       sodipodi:cy="145.17137"
       sodipodi:r1="4.888546"
       sodipodi:r2="2.4442728"
       sodipodi:arg1="0.65569563"
       sodipodi:arg2="1.2840142"
       inkscape:flatsided="false"
       inkscape:rounded="0"
       inkscape:randomized="0"
       d="m 118.94345,148.15197 -3.18337,-0.63615 -2.32875,2.26174 -0.3787,-3.22415 -2.87067,-1.51586 2.94932,-1.35648 0.55458,-3.19859 2.20149,2.3858 3.21341,-0.46099 -1.58873,2.83099 z"
       inkscape:transform-center-x="0.42731336"
       inkscape:transform-center-y="-0.041354122" />
    <path
       sodipodi:type="star"
       style="opacity:1;fill:#c8ab37;fill-opacity:1;stroke:#efff32;stroke-width:0.164;stroke-miterlimit:4;stroke-dasharray:none;stroke-opacity:1;paint-order:fill markers stroke"
       id="path922-8-18"
       sodipodi:sides="5"
       sodipodi:cx="141.08487"
       sodipodi:cy="147.30853"
       sodipodi:r1="4.888546"
       sodipodi:r2="2.4442728"
       sodipodi:arg1="0.65569563"
       sodipodi:arg2="1.2840142"
       inkscape:flatsided="false"
       inkscape:rounded="0"
       inkscape:randomized="0"
       d="m 144.95965,150.28913 -3.18338,-0.63615 -2.32875,2.26174 -0.3787,-3.22415 -2.87066,-1.51585 2.94932,-1.35649 0.55458,-3.19859 2.20148,2.3858 3.21342,-0.46099 -1.58873,2.83099 z"
       inkscape:transform-center-x="0.42731336"
       inkscape:transform-center-y="-0.041354122" />
    <path
       sodipodi:type="star"
       style="opacity:1;fill:#5599ff;fill-opacity:1;stroke:#efff32;stroke-width:0.164;stroke-miterlimit:4;stroke-dasharray:none;stroke-opacity:1;paint-order:fill markers stroke"
       id="path922-8-01"
       sodipodi:sides="5"
       sodipodi:cx="111.91056"
       sodipodi:cy="129.71187"
       sodipodi:r1="4.888546"
       sodipodi:r2="2.4442728"
       sodipodi:arg1="0.65569563"
       sodipodi:arg2="1.2840142"
       inkscape:flatsided="false"
       inkscape:rounded="0"
       inkscape:randomized="0"
       d="m 115.78534,132.69247 -3.18337,-0.63616 -2.32876,2.26175 -0.37869,-3.22415 -2.87067,-1.51586 2.94932,-1.35648 0.55458,-3.19859 2.20148,2.38579 3.21342,-0.46098 -1.58873,2.83099 z"
       inkscape:transform-center-x="0.42731336"
       inkscape:transform-center-y="-0.041354122" />
    <path
       sodipodi:type="star"
       style="opacity:1;fill:#c87137;fill-opacity:1;stroke:#efff32;stroke-width:0.164;stroke-miterlimit:4;stroke-dasharray:none;stroke-opacity:1;paint-order:fill markers stroke"
       id="path922-8-9"
       sodipodi:sides="5"
       sodipodi:cx="141.3693"
       sodipodi:cy="71.166496"
       sodipodi:r1="4.888546"
       sodipodi:r2="2.4442728"
       sodipodi:arg1="0.65569563"
       sodipodi:arg2="1.2840142"
       inkscape:flatsided="false"
       inkscape:rounded="0"
       inkscape:randomized="0"
       d="m 145.24407,74.147095 -3.18337,-0.636152 -2.32875,2.261743 -0.3787,-3.224151 -2.87067,-1.515856 2.94932,-1.356482 0.55458,-3.198594 2.20149,2.385799 3.21341,-0.460984 -1.58873,2.830987 z"
       inkscape:transform-center-x="0.42731336"
       inkscape:transform-center-y="-0.041354122" />
    <path
       sodipodi:type="star"
       style="opacity:1;fill:#5599ff;fill-opacity:1;stroke:#efff32;stroke-width:0.164;stroke-miterlimit:4;stroke-dasharray:none;stroke-opacity:1;paint-order:fill markers stroke"
       id="path922-8-94"
       sodipodi:sides="5"
       sodipodi:cx="154.49893"
       sodipodi:cy="78.868553"
       sodipodi:r1="4.8885431"
       sodipodi:r2="2.4442713"
       sodipodi:arg1="0.65569563"
       sodipodi:arg2="1.2840142"
       inkscape:flatsided="false"
       inkscape:rounded="0"
       inkscape:randomized="0"
       d="m 158.37371,81.849151 -3.18338,-0.636153 -2.32875,2.261742 -0.37869,-3.224149 -2.87067,-1.515855 2.94932,-1.356481 0.55458,-3.198592 2.20148,2.385797 3.21342,-0.460983 -1.58874,2.830985 z"
       inkscape:transform-center-x="0.42731336"
       inkscape:transform-center-y="-0.041354122"
       transform="matrix(1,0,0,1.0000011,1.6605102,-3.7191869)" />
    <path
       sodipodi:type="star"
       style="opacity:1;fill:#c8ab37;fill-opacity:1;stroke:#efff32;stroke-width:0.164;stroke-miterlimit:4;stroke-dasharray:none;stroke-opacity:1;paint-order:fill markers stroke"
       id="path922-8-4"
       sodipodi:sides="5"
       sodipodi:cx="163.29711"
       sodipodi:cy="94.1408"
       sodipodi:r1="4.888546"
       sodipodi:r2="2.4442728"
       sodipodi:arg1="0.65569563"
       sodipodi:arg2="1.2840142"
       inkscape:flatsided="false"
       inkscape:rounded="0"
       inkscape:randomized="0"
       d="m 167.17188,97.1214 -3.18337,-0.636153 -2.32875,2.261743 -0.3787,-3.224151 -2.87067,-1.515856 2.94932,-1.356482 0.55458,-3.198594 2.20149,2.385799 3.21341,-0.460983 -1.58873,2.830986 z"
       inkscape:transform-center-x="0.42731336"
       inkscape:transform-center-y="-0.041354122" />
    <path
       sodipodi:type="star"
       style="opacity:1;fill:#892ca0;fill-opacity:1;stroke:#efff32;stroke-width:0.164;stroke-miterlimit:4;stroke-dasharray:none;stroke-opacity:1;paint-order:fill markers stroke"
       id="path922-8-6"
       sodipodi:sides="5"
       sodipodi:cx="165.67586"
       sodipodi:cy="84.168618"
       sodipodi:r1="4.888546"
       sodipodi:r2="2.4442728"
       sodipodi:arg1="0.65569563"
       sodipodi:arg2="1.2840142"
       inkscape:flatsided="false"
       inkscape:rounded="0"
       inkscape:randomized="0"
       d="m 169.55064,87.149216 -3.18338,-0.636152 -2.32875,2.261743 -0.3787,-3.224151 -2.87067,-1.515856 2.94933,-1.356482 0.55458,-3.198594 2.20148,2.385799 3.21342,-0.460984 -1.58874,2.830987 z"
       inkscape:transform-center-x="0.42731336"
       inkscape:transform-center-y="-0.041354122" />
    <path
       sodipodi:type="star"
       style="opacity:1;fill:#374548;fill-opacity:1;stroke:#efff32;stroke-width:0.164;stroke-miterlimit:4;stroke-dasharray:none;stroke-opacity:1;paint-order:fill markers stroke"
       id="path922-8-92"
       sodipodi:sides="5"
       sodipodi:cx="129.84935"
       sodipodi:cy="81.424078"
       sodipodi:r1="4.888546"
       sodipodi:r2="2.4442728"
       sodipodi:arg1="0.65569563"
       sodipodi:arg2="1.2840142"
       inkscape:flatsided="false"
       inkscape:rounded="0"
       inkscape:randomized="0"
       d="m 133.72413,84.404679 -3.18338,-0.636153 -2.32875,2.261743 -0.3787,-3.22415 -2.87066,-1.515857 2.94932,-1.356482 0.55458,-3.198593 2.20148,2.385798 3.21342,-0.460983 -1.58873,2.830987 z"
       inkscape:transform-center-x="0.42731336"
       inkscape:transform-center-y="-0.041354122" />
    <path
       sodipodi:type="star"
       style="opacity:1;fill:#c8ab37;fill-opacity:1;stroke:#efff32;stroke-width:0.164;stroke-miterlimit:4;stroke-dasharray:none;stroke-opacity:1;paint-order:fill markers stroke"
       id="path922-8-90"
       sodipodi:sides="5"
       sodipodi:cx="173.23495"
       sodipodi:cy="99.617868"
       sodipodi:r1="4.888546"
       sodipodi:r2="2.4442728"
       sodipodi:arg1="0.65569563"
       sodipodi:arg2="1.2840142"
       inkscape:flatsided="false"
       inkscape:rounded="0"
       inkscape:randomized="0"
       d="m 177.10973,102.59847 -3.18337,-0.63616 -2.32875,2.26175 -0.3787,-3.22415 -2.87067,-1.515861 2.94933,-1.356482 0.55458,-3.198594 2.20148,2.385799 3.21342,-0.460983 -1.58874,2.830986 z"
       inkscape:transform-center-x="0.42731336"
       inkscape:transform-center-y="-0.041354122" />
    <path
       sodipodi:type="star"
       style="opacity:1;fill:#3e3748;fill-opacity:1;stroke:#efff32;stroke-width:0.164;stroke-miterlimit:4;stroke-dasharray:none;stroke-opacity:1;paint-order:fill markers stroke"
       id="path922-8-33"
       sodipodi:sides="5"
       sodipodi:cx="152.31063"
       sodipodi:cy="91.238559"
       sodipodi:r1="4.888546"
       sodipodi:r2="2.4442728"
       sodipodi:arg1="0.65569563"
       sodipodi:arg2="1.2840142"
       inkscape:flatsided="false"
       inkscape:rounded="0"
       inkscape:randomized="0"
       d="m 156.1854,94.219155 -3.18337,-0.636153 -2.32875,2.261743 -0.3787,-3.22415 -2.87067,-1.515857 2.94932,-1.356482 0.55458,-3.198593 2.20149,2.385798 3.21341,-0.460983 -1.58873,2.830987 z"
       inkscape:transform-center-x="0.42731336"
       inkscape:transform-center-y="-0.041354122" />
    <path
       sodipodi:type="star"
       style="opacity:1;fill:#c8ab37;fill-opacity:1;stroke:#efff32;stroke-width:0.164;stroke-miterlimit:4;stroke-dasharray:none;stroke-opacity:1;paint-order:fill markers stroke"
       id="path922-8-79"
       sodipodi:sides="5"
       sodipodi:cx="145.3049"
       sodipodi:cy="82.92103"
       sodipodi:r1="4.888546"
       sodipodi:r2="2.4442728"
       sodipodi:arg1="0.65569563"
       sodipodi:arg2="1.2840142"
       inkscape:flatsided="false"
       inkscape:rounded="0"
       inkscape:randomized="0"
       d="m 149.17968,85.901627 -3.18337,-0.636152 -2.32875,2.261743 -0.3787,-3.224151 -2.87067,-1.515856 2.94932,-1.356482 0.55458,-3.198594 2.20148,2.385799 3.21342,-0.460984 -1.58873,2.830987 z"
       inkscape:transform-center-x="0.42731336"
       inkscape:transform-center-y="-0.041354122" />
    <path
       sodipodi:type="star"
       style="opacity:1;fill:#ac939d;fill-opacity:1;stroke:#efff32;stroke-width:0.164;stroke-miterlimit:4;stroke-dasharray:none;stroke-opacity:1;paint-order:fill markers stroke"
       id="path922-8-942"
       sodipodi:sides="5"
       sodipodi:cx="153.4896"
       sodipodi:cy="144.47023"
       sodipodi:r1="4.888546"
       sodipodi:r2="2.4442728"
       sodipodi:arg1="0.65569563"
       sodipodi:arg2="1.2840142"
       inkscape:flatsided="false"
       inkscape:rounded="0"
       inkscape:randomized="0"
       d="m 157.36437,147.45083 -3.18337,-0.63615 -2.32875,2.26174 -0.3787,-3.22415 -2.87067,-1.51586 2.94932,-1.35648 0.55458,-3.19859 2.20149,2.3858 3.21341,-0.46099 -1.58873,2.83099 z"
       inkscape:transform-center-x="0.42731336"
       inkscape:transform-center-y="-0.041354122" />
    <path
       style="opacity:0.85100002;fill:#008080;fill-opacity:1;stroke:#efff32;stroke-width:0.15985852;stroke-miterlimit:4;stroke-dasharray:none;stroke-opacity:1;paint-order:fill markers stroke"
       d="m 79.6635,81.436962 c -6.25456,0.0291 -9.850043,1.1437 -9.850043,3.44734 v 13.98674 c 0,6.701488 30.429213,20.852308 68.226843,31.728308 37.79763,10.876 68.22632,14.23643 68.22632,7.53494 v -13.98623 c 0,-6.70149 -30.42869,-20.8523 -68.22632,-31.728308 -24.8047,-7.13737 -46.43627,-11.03836 -58.3768,-10.98279 z"
       id="path1059" />
    <path
       style="opacity:0.85100002;fill:#008080;fill-opacity:1;stroke:#efff32;stroke-width:0.15985852;stroke-miterlimit:4;stroke-dasharray:none;stroke-opacity:1;paint-order:fill markers stroke"
       d="m 83.11755,85.988112 4.32997,1.24591 c 1.29226,0.37184 2.28814,1.0424 2.98742,2.01177 0.69927,0.96937 1.04851,2.16229 1.04851,3.57859 0,1.09623 -0.17889,1.91675 -0.53692,2.46187 -0.35803,0.54511 -0.884,0.79766 -1.57768,0.75809 0.83354,0.4959 1.47966,1.21811 1.93838,2.16628 0.46432,0.94177 0.6966,2.020758 0.6966,3.237018 0,1.60033 -0.3802,2.72739 -1.14101,3.38066 -0.76082,0.65327 -1.8432,0.77766 -3.24735,0.37362 l -4.49792,-1.29398 z"
       id="path1057" />
    <path
       style="opacity:0.85100002;fill:#008080;fill-opacity:1;stroke:#efff32;stroke-width:0.15985852;stroke-miterlimit:4;stroke-dasharray:none;stroke-opacity:1;paint-order:fill markers stroke"
       d="m 84.81254,88.468062 v 5.40122 l 2.50889,0.72192 c 0.82794,0.23823 1.44362,0.19552 1.8464,-0.12867 0.40838,-0.33059 0.61237,-0.9523 0.61237,-1.86449 0,-0.90419 -0.20399,-1.63891 -0.61237,-2.20452 -0.40278,-0.56399 -1.01846,-0.96531 -1.8464,-1.20354 z"
       id="path1055" />
    <path
       style="opacity:0.85100002;fill:#008080;fill-opacity:1;stroke:#efff32;stroke-width:0.15985852;stroke-miterlimit:4;stroke-dasharray:none;stroke-opacity:1;paint-order:fill markers stroke"
       d="m 98.12956,90.307742 1.92184,0.55294 4.77439,19.293398 -1.76217,-0.50695 -1.14101,-4.92528 -5.64772,-1.62522 -1.14102,4.26898 -1.78748,-0.51469 z"
       id="path1053" />
    <path
       style="opacity:0.85100002;fill:#008080;fill-opacity:1;stroke:#efff32;stroke-width:0.15985852;stroke-miterlimit:4;stroke-dasharray:none;stroke-opacity:1;paint-order:fill markers stroke"
       d="m 99.08609,92.971142 -2.29909,8.256358 4.60696,1.32601 z"
       id="path1051" />
    <path
       style="opacity:0.85100002;fill:#008080;fill-opacity:1;stroke:#efff32;stroke-width:0.15985852;stroke-miterlimit:4;stroke-dasharray:none;stroke-opacity:1;paint-order:fill markers stroke"
       d="m 109.07204,93.324612 c 0.43137,-0.004 0.90403,0.0676 1.418,0.21549 0.58739,0.16902 1.18599,0.41717 1.79576,0.74466 0.60977,0.32749 1.23346,0.73509 1.8712,1.22266 v 2.36471 c -0.64333,-0.6252 -1.25047,-1.12819 -1.82108,-1.50843 -0.57061,-0.38023 -1.12168,-0.64651 -1.65313,-0.79943 -0.92304,-0.2656 -1.63592,-0.21479 -2.1394,0.15244 -0.49789,0.36885 -0.74724,1.02519 -0.74724,1.96939 0,0.79217 0.165,1.43998 0.49506,1.943037 0.33565,0.496671 0.96789,1.002481 1.89652,1.517741 l 1.02372,0.5948 c 1.26429,0.70786 2.19608,1.58384 2.79466,2.62825 0.60417,1.03803 0.90588,2.28507 0.90588,3.74138 0,1.73636 -0.40797,2.93551 -1.22473,3.59669 -0.81116,0.66278 -2.003,0.76755 -3.57497,0.31522 -0.59299,-0.17062 -1.22523,-0.44833 -1.89653,-0.83354 -0.66571,-0.38359 -1.35668,-0.86638 -2.07274,-1.4485 v -2.49649 c 0.68809,0.75011 1.3625,1.35986 2.02262,1.82987 0.66011,0.47 1.30891,0.79679 1.94665,0.9803 0.96779,0.27847 1.71483,0.22123 2.24069,-0.17157 0.52585,-0.3928 0.78858,-1.09295 0.78858,-2.10116 0,-0.88019 -0.1901,-1.62324 -0.57051,-2.22881 -0.37481,-0.60395 -0.99316,-1.15408 -1.85467,-1.65003 l -1.03197,-0.58496 c -1.2643,-0.72387 -2.17901,-1.55077 -2.74402,-2.48151 -0.56502,-0.930741 -0.8475,-2.080598 -0.8475,-3.448888 0,-1.58434 0.38874,-2.72065 1.16634,-3.4091 0.48949,-0.42927 1.09387,-0.6473 1.81281,-0.65422 z"
       id="path1049" />
    <path
       style="opacity:0.85100002;fill:#008080;fill-opacity:1;stroke:#efff32;stroke-width:0.15985852;stroke-miterlimit:4;stroke-dasharray:none;stroke-opacity:1;paint-order:fill markers stroke"
       d="m 84.81254,95.837632 v 6.565498 l 2.7187,0.78239 c 0.91185,0.26238 1.58626,0.18834 2.02261,-0.22221 0.44195,-0.41695 0.66249,-1.18168 0.66249,-2.29392 0,-1.120241 -0.22054,-2.008138 -0.66249,-2.663408 -0.43635,-0.66167 -1.11076,-1.12359 -2.02261,-1.38596 z"
       id="path1047" />
    <path
       style="opacity:0.85100002;fill:#008080;fill-opacity:1;stroke:#efff32;stroke-width:0.15985852;stroke-miterlimit:4;stroke-dasharray:none;stroke-opacity:1;paint-order:fill markers stroke"
       d="m 117.55524,95.897032 1.69499,0.48783 v 7.573698 l 5.6224,-5.955708 2.18177,0.62787 -6.21822,6.564458 6.66316,11.48303 -2.23242,-0.64234 -6.01669,-10.36114 v 8.62998 l -1.69499,-0.48783 z"
       id="path1045" />
    <path
       style="opacity:0.85100002;fill:#008080;fill-opacity:1;stroke:#efff32;stroke-width:0.15985852;stroke-miterlimit:4;stroke-dasharray:none;stroke-opacity:1;paint-order:fill markers stroke"
       d="m 128.83311,99.142322 7.92148,2.279448 v 2.04019 l -6.22598,-1.79163 v 5.3051 l 5.96605,1.71721 v 2.04019 l -5.96605,-1.7167 v 6.49315 l 6.37739,1.83504 v 2.0407 l -8.07289,-2.32286 z"
       id="path1043" />
    <path
       style="opacity:0.85100002;fill:#008080;fill-opacity:1;stroke:#efff32;stroke-width:0.15985852;stroke-miterlimit:4;stroke-dasharray:none;stroke-opacity:1;paint-order:fill markers stroke"
       d="m 137.97157,101.77162 10.59832,3.04993 v 2.04019 l -4.44779,-1.27951 v 15.87914 l -1.70326,-0.48989 v -15.87966 l -4.44727,-1.27951 z"
       id="path1041" />
    <path
       style="opacity:0.85100002;fill:#008080;fill-opacity:1;stroke:#efff32;stroke-width:0.15985852;stroke-miterlimit:4;stroke-dasharray:none;stroke-opacity:1;paint-order:fill markers stroke"
       d="m 150.21423,105.29439 4.32997,1.24592 c 1.29226,0.37184 2.28814,1.04291 2.98741,2.01228 0.69928,0.96938 1.04904,2.16179 1.04904,3.57809 0,1.09623 -0.17889,1.91727 -0.53692,2.46238 -0.35803,0.54512 -0.884,0.79766 -1.57768,0.75809 0.83353,0.4959 1.47965,1.21811 1.93838,2.16628 0.46432,0.94178 0.6966,2.02076 0.6966,3.23701 0,1.60034 -0.38072,2.72689 -1.14154,3.38016 -0.76081,0.65326 -1.8432,0.77817 -3.24734,0.37413 l -4.49792,-1.29449 z"
       id="path1039" />
    <path
       style="opacity:0.85100002;fill:#008080;fill-opacity:1;stroke:#efff32;stroke-width:0.15985852;stroke-miterlimit:4;stroke-dasharray:none;stroke-opacity:1;paint-order:fill markers stroke"
       d="m 151.90922,107.77486 v 5.40123 l 2.50941,0.72192 c 0.82794,0.23824 1.44309,0.19501 1.84588,-0.12919 0.40837,-0.33059 0.61236,-0.95177 0.61236,-1.86397 0,-0.90419 -0.20399,-1.63892 -0.61236,-2.20452 -0.40279,-0.56399 -1.01794,-0.96531 -1.84588,-1.20355 z"
       id="path1037" />
    <path
       style="opacity:0.85100002;fill:#008080;fill-opacity:1;stroke:#efff32;stroke-width:0.15985852;stroke-miterlimit:4;stroke-dasharray:none;stroke-opacity:1;paint-order:fill markers stroke"
       d="m 165.22624,109.61403 1.92184,0.55293 4.77439,19.29393 -1.76217,-0.50695 -1.14102,-4.92528 -5.6472,-1.62522 -1.14153,4.26847 -1.78697,-0.51418 z"
       id="path1035" />
    <path
       style="opacity:0.85100002;fill:#008080;fill-opacity:1;stroke:#efff32;stroke-width:0.15985852;stroke-miterlimit:4;stroke-dasharray:none;stroke-opacity:1;paint-order:fill markers stroke"
       d="m 173.74354,112.06505 1.69499,0.48783 v 15.87913 l 6.1004,1.75545 v 2.04018 l -7.79539,-2.24275 z"
       id="path1033" />
    <path
       style="opacity:0.851;fill:#008080;fill-opacity:1;stroke:#efff32;stroke-width:0.15985852;stroke-miterlimit:4;stroke-dasharray:none;stroke-opacity:1;paint-order:fill markers stroke"
       d="m 166.18328,112.27796 -2.2996,8.25634 4.60696,1.3255 z"
       id="path1031" />
    <path
       style="opacity:0.85100002;fill:#008080;fill-opacity:1;stroke:#efff32;stroke-width:0.15985852;stroke-miterlimit:4;stroke-dasharray:none;stroke-opacity:1;paint-order:fill markers stroke"
       d="m 183.30988,114.81734 1.69499,0.48782 v 15.87965 l 6.1004,1.75545 v 2.04019 l -7.79539,-2.24328 z"
       id="path1029" />
    <path
       style="opacity:0.85100002;fill:#008080;fill-opacity:1;stroke:#efff32;stroke-width:0.15985852;stroke-miterlimit:4;stroke-dasharray:none;stroke-opacity:1;paint-order:fill markers stroke"
       d="m 151.90922,115.14445 v 6.56549 l 2.71921,0.78187 c 0.91186,0.26237 1.58575,0.18834 2.0221,-0.22222 0.44194,-0.41694 0.66301,-1.18116 0.66301,-2.2934 0,-1.12023 -0.22107,-2.00812 -0.66301,-2.6634 -0.43635,-0.66167 -1.11024,-1.12358 -2.0221,-1.38596 z"
       id="rect850" />
    <path
       sodipodi:type="star"
       style="opacity:1;fill:#c6afe9;fill-opacity:1;stroke:#efff32;stroke-width:0.164;stroke-miterlimit:4;stroke-dasharray:none;stroke-opacity:1;paint-order:fill markers stroke"
       id="path922-8-06"
       sodipodi:sides="5"
       sodipodi:cx="127.84419"
       sodipodi:cy="148.59753"
       sodipodi:r1="4.888546"
       sodipodi:r2="2.4442728"
       sodipodi:arg1="0.65569563"
       sodipodi:arg2="1.2840142"
       inkscape:flatsided="false"
       inkscape:rounded="0"
       inkscape:randomized="0"
       d="m 131.71897,151.57813 -3.18337,-0.63615 -2.32875,2.26174 -0.3787,-3.22415 -2.87067,-1.51585 2.94932,-1.35649 0.55458,-3.19859 2.20149,2.3858 3.21341,-0.46098 -1.58873,2.83098 z"
       inkscape:transform-center-x="0.42731336"
       inkscape:transform-center-y="-0.041354122" />
    <path
       sodipodi:type="star"
       style="opacity:1;fill:#501644;fill-opacity:1;stroke:#efff32;stroke-width:0.164;stroke-miterlimit:4;stroke-dasharray:none;stroke-opacity:1;paint-order:fill markers stroke"
       id="path922-8-95"
       sodipodi:sides="5"
       sodipodi:cx="104.12365"
       sodipodi:cy="136.33442"
       sodipodi:r1="4.888546"
       sodipodi:r2="2.4442728"
       sodipodi:arg1="0.65569563"
       sodipodi:arg2="1.2840142"
       inkscape:flatsided="false"
       inkscape:rounded="0"
       inkscape:randomized="0"
       d="m 107.99843,139.31503 -3.18338,-0.63616 -2.32875,2.26175 -0.3787,-3.22415 -2.870665,-1.51586 2.949325,-1.35648 0.55458,-3.1986 2.20148,2.3858 3.21342,-0.46098 -1.58873,2.83099 z"
       inkscape:transform-center-x="0.42731336"
       inkscape:transform-center-y="-0.041354122" />
    <path
       sodipodi:type="star"
       style="opacity:1;fill:#5a2ca0;fill-opacity:1;stroke:#efff32;stroke-width:0.164;stroke-miterlimit:4;stroke-dasharray:none;stroke-opacity:1;paint-order:fill markers stroke"
       id="path922-8-61"
       sodipodi:sides="5"
       sodipodi:cx="103.02052"
       sodipodi:cy="124.34404"
       sodipodi:r1="4.888546"
       sodipodi:r2="2.4442728"
       sodipodi:arg1="0.65569563"
       sodipodi:arg2="1.2840142"
       inkscape:flatsided="false"
       inkscape:rounded="0"
       inkscape:randomized="0"
       d="m 106.8953,127.32464 -3.18337,-0.63615 -2.32875,2.26174 -0.3787,-3.22415 -2.870671,-1.51586 2.949321,-1.35648 0.55458,-3.19859 2.20149,2.3858 3.21341,-0.46099 -1.58873,2.83099 z"
       inkscape:transform-center-x="0.42731336"
       inkscape:transform-center-y="-0.041354122" />
  </g>
</svg>
